<svg xmlns="http://www.w3.org/2000/svg" x="0px" y="0px" width="50" height="50" viewBox="0 0 172 172">
  <g>
    <path
      d="M65.36,20.64c-32.25,0 -58.48,22.37344 -58.48,49.88c0,14.68719 7.08156,27.89625 20.00844,37.46375l-9.07031,27.22438l28.36656,-17.56281c7.87438,2.4725 17.48219,3.34594 26.75406,2.32469c7.525,14.56625 24.52344,24.51 44.02125,24.51c5.92594,0 11.40844,-1.11531 16.50125,-2.63375l23.55594,13.18219l-6.57094,-22.53469c8.86875,-7.36375 14.67375,-17.61656 14.67375,-29.29375c0,-21.36562 -18.58406,-38.40437 -42.14,-40.91719c-4.6225,-23.91875 -28.83687,-41.64281 -57.62,-41.64281zM44.72,48.16c3.78938,0 6.88,3.09063 6.88,6.88c0,3.78938 -3.09062,6.88 -6.88,6.88c-3.78937,0 -6.88,-3.09062 -6.88,-6.88c0,-3.78937 3.09063,-6.88 6.88,-6.88zM86,48.16c3.78938,0 6.88,3.09063 6.88,6.88c0,3.78938 -3.09062,6.88 -6.88,6.88c-3.78937,0 -6.88,-3.09062 -6.88,-6.88c0,-3.78937 3.09063,-6.88 6.88,-6.88zM116.96,68.8c23.20656,0 41.28,15.60094 41.28,34.4c0,10.17219 -5.18687,19.09469 -13.74656,25.43719l-1.92156,1.43781l3.13094,10.73656l-11.18,-6.27531l-1.45125,0.48375c-4.81063,1.6125 -10.30656,2.58 -16.11156,2.58c-23.20656,0 -41.28,-15.60094 -41.28,-34.4c0,-18.79906 18.07344,-34.4 41.28,-34.4zM101.48,89.44c-2.75469,0 -5.16,2.40531 -5.16,5.16c0,2.75469 2.40531,5.16 5.16,5.16c2.75469,0 5.16,-2.40531 5.16,-5.16c0,-2.75469 -2.40531,-5.16 -5.16,-5.16zM132.44,89.44c-2.75469,0 -5.16,2.40531 -5.16,5.16c0,2.75469 2.40531,5.16 5.16,5.16c2.75469,0 5.16,-2.40531 5.16,-5.16c0,-2.75469 -2.40531,-5.16 -5.16,-5.16z">
    </path>
  </g>
</svg>