<svg xmlns="http://www.w3.org/2000/svg" x="0px" y="0px" width="50" height="50" viewBox="0 0 172 172" style=" fill:#000000;">
  <g fill="none" fill-rule="nonzero" stroke="none" stroke-width="1" stroke-linecap="butt" stroke-linejoin="miter" stroke-miterlimit="10" stroke-dasharray="" stroke-dashoffset="0" font-family="none" font-weight="none" font-size="none" text-anchor="none" style="mix-blend-mode: normal">
    <path d="M0,172v-172h172v172z" fill="none"></path>
    <g id="original-icon" fill="#000000">
      <path d="M30.96,13.76c-9.45834,0 -17.2,7.74166 -17.2,17.2v110.08c0,9.45834 7.74166,17.2 17.2,17.2h110.08c9.45834,0 17.2,-7.74166 17.2,-17.2v-110.08c0,-9.45834 -7.74166,-17.2 -17.2,-17.2zM30.96,20.64h22.62203c-11.89596,12.37749 -19.18203,28.63328 -19.18203,46.44c0,18.44305 7.80243,35.25517 20.46531,47.77703c-0.4603,-0.43852 0.13559,0.32408 0.19484,1.67297c0.06116,1.39242 -0.1485,3.30555 -0.71219,5.20031c-1.12736,3.78952 -3.48532,7.28256 -7.2764,8.54625c-1.48064,0.49343 -2.44364,1.92172 -2.34589,3.47934c0.09775,1.55763 1.23175,2.85432 2.76246,3.15878c9.49338,1.89868 16.2085,-0.95965 21.15734,-3.23172c4.94885,-2.27206 7.62289,-3.80104 12.62453,-1.78047c0.01341,0.00456 0.02685,0.00904 0.04031,0.01344c9.36477,3.66052 19.67514,5.68406 30.48969,5.68406c14.43878,0 27.97122,-3.60798 39.56,-9.89672v13.33672c0,5.73958 -4.58042,10.32 -10.32,10.32h-110.08c-5.73958,0 -10.32,-4.58042 -10.32,-10.32v-110.08c0,-5.73958 4.58042,-10.32 10.32,-10.32zM63.62656,20.64h77.41344c5.73958,0 10.32,4.58042 10.32,10.32v88.76813c-11.2595,6.90763 -24.85522,10.99187 -39.56,10.99187c-9.94109,0 -19.38906,-1.85964 -27.95,-5.20031c-7.26883,-2.93647 -13.18991,-0.33396 -18.07344,1.90813c-2.64482,1.21426 -5.25421,2.22368 -8.2036,2.78156c1.45916,-2.08053 2.7073,-4.30271 3.3661,-6.51719c0.77835,-2.61637 1.09479,-5.17841 0.99437,-7.46453c-0.10007,-2.27821 -0.29914,-4.36471 -2.2239,-6.25515l-0.00672,-0.00672c-11.48458,-11.35696 -18.42281,-26.37811 -18.42281,-42.88578c0,-18.30972 8.55246,-34.78655 22.34656,-46.44zM113.46625,51.55297c-1.89722,0.02966 -3.41223,1.58976 -3.38625,3.48703v30.96c-0.01754,1.24059 0.63425,2.39452 1.7058,3.01993c1.07155,0.62541 2.39684,0.62541 3.46839,0c1.07155,-0.62541 1.72335,-1.77935 1.7058,-3.01993v-30.96c0.01273,-0.92983 -0.35149,-1.82522 -1.00967,-2.48214c-0.65819,-0.65692 -1.55427,-1.01942 -2.48408,-1.00489zM61.92,55.04c-1.24059,-0.01754 -2.39452,0.63425 -3.01993,1.7058c-0.62541,1.07155 -0.62541,2.39684 0,3.46839c0.62541,1.07155 1.77935,1.72335 3.01993,1.7058h10.9986l-13.91453,22.25922c-0.66113,1.06019 -0.69551,2.39548 -0.08979,3.48828c0.60571,1.0928 1.75629,1.7713 3.00573,1.7725h17.2c1.24059,0.01754 2.39452,-0.63425 3.01993,-1.7058c0.62541,-1.07155 0.62541,-2.39684 0,-3.46839c-0.62541,-1.07155 -1.77935,-1.72335 -3.01993,-1.7058h-10.9986l13.91453,-22.25922c0.66113,-1.06019 0.69551,-2.39548 0.08979,-3.48828c-0.60571,-1.0928 -1.75629,-1.7713 -3.00573,-1.7725zM103.14625,65.31297c-1.14588,0.02022 -2.20645,0.6097 -2.8286,1.57219c-1.7117,-0.93993 -3.64176,-1.52515 -5.71765,-1.52515c-6.60876,0 -12.04,5.43124 -12.04,12.04c0,6.60876 5.43124,12.04 12.04,12.04c2.0738,0 4.00047,-0.58698 5.71094,-1.52515c0.83273,1.28789 2.41737,1.86906 3.88531,1.42493c1.46794,-0.44412 2.46464,-1.80627 2.44375,-3.33978v-8.6v-8.6c0.01273,-0.92983 -0.35149,-1.82522 -1.00967,-2.48214c-0.65819,-0.65692 -1.55427,-1.01942 -2.48408,-1.00489zM132.44,65.36c-6.60876,0 -12.04,5.43124 -12.04,12.04c0,6.60876 5.43124,12.04 12.04,12.04c6.60876,0 12.04,-5.43124 12.04,-12.04c0,-6.60876 -5.43124,-12.04 -12.04,-12.04zM94.6,72.24c2.89054,0 5.16,2.26946 5.16,5.16c0,2.89054 -2.26946,5.16 -5.16,5.16c-2.89054,0 -5.16,-2.26946 -5.16,-5.16c0,-2.89054 2.26946,-5.16 5.16,-5.16zM132.44,72.24c2.89054,0 5.16,2.26946 5.16,5.16c0,2.89054 -2.26946,5.16 -5.16,5.16c-2.89054,0 -5.16,-2.26946 -5.16,-5.16c0,-2.89054 2.26946,-5.16 5.16,-5.16z"></path>
    </g>
  </g>
</svg>